<?xml version="1.0" encoding="utf-8"?>
<!-- Generator: Adobe Illustrator 24.3.0, SVG Export Plug-In . SVG Version: 6.00 Build 0)  -->
<svg version="1.1" id="Layer_1" xmlns="http://www.w3.org/2000/svg" xmlns:xlink="http://www.w3.org/1999/xlink" x="0px" y="0px"
	 viewBox="0 0 508 508" style="enable-background:new 0 0 508 508;" xml:space="preserve">
<style type="text/css">
	.st0{fill:#333333;}
</style>
<g id="Layer_17">
</g>
<g id="Layer_14">
	<g>
		<path class="st0" d="M422.6,264.2c-5-39.4-19.3-75.2-44.4-104.6c4.3-5.7,9.3-10,14.3-15c2.1,2.1,5,5,7.9,5.7
			c5.7,2.1,10-3.6,12.9-7.9c3.6-5,8.6-10.7,5.7-17.2c-2.9-7.2-13.6-13.6-19.3-18.6c-6.4-5-14.3-13.6-22.9-16.5
			c-7.2-2.9-12.9,2.9-17.2,7.9c-3.6,4.3-7.2,7.9-5,13.6c1.4,2.9,2.9,5,5.7,7.2c-4.3,4.3-7.9,8.6-11.5,12.9
			c-20.8-14.3-45.8-22.9-70.9-27.2c-0.7-4.3-0.7-8.6-0.7-12.9c3.6,0,7.2,0,10-1.4c7.9-2.9,8.6-7.2,8.6-15.8
			c0.7-10.7,2.1-27.9-7.2-35.1C278,31.5,252.2,35,240,35c-25.1,0.7-59.4-6.4-60.9,25.8c0,6.4-2.1,21.5,3.6,26.5
			c3.6,2.9,10,4.3,16.5,5c0,4.3,0,9.3,0,13.6c0,0.7,0,0.7,0,1.4c-57.3,15-106,55.1-128.9,112.4c-27.9,70.2-10,161.8,50.8,210.5
			c22.9,17.9,48,34.4,77.3,38.7c44.4,6.4,93.8,4.3,134.6-17.9c27.2-14.3,53.7-40.1,69.5-66.6C423.3,352.3,426.9,302.9,422.6,264.2z
			 M375.4,101.6c5,0.7,13.6,10,17.2,12.9c4.3,3.6,10,7.2,13.6,11.5c3.6,5,0.7,10-3.6,13.6c-7.2-4.3-13.6-10.7-20.1-15.8
			c-5.7-4.3-12.9-9.3-17.2-15.8C367.5,105.2,371.8,100.9,375.4,101.6z M368.2,126.7c2.9,2.1,6.4,4.3,9.3,6.4c2.1,2.1,5,3.6,7.2,5.7
			c-4.3,4.3-8.6,9.3-12.9,13.6c-2.9-3.6-6.4-6.4-9.3-9.3c-1.4-1.4-3.6-2.9-5-4.3C360.3,134.6,363.9,130.3,368.2,126.7z M188.5,75.1
			c-0.7-2.9-0.7-10,0-12.9c2.1-11.5,8.6-12.9,20.1-14.3c10-1.4,20.8-0.7,30.8-1.4c9.3,0,18.6-0.7,27.9,0.7
			c10,0.7,14.3,0.7,17.2,10.7c1.4,3.6,2.1,14.3,0.7,17.9c-3.6,9.3-11.5,6.4-21.5,6.4c-11.5,0-22.2,0.7-33.7,0.7
			C219.2,83,192.7,86.6,188.5,75.1z M208.5,93.8c7.2,0,14.3-0.7,18.6-0.7c10.7,0,22.2-0.7,32.9-0.7c2.1,0,4.3,0,6.4,0
			c0,3.6,0,7.9,0.7,11.5c-7.9-0.7-15-1.4-22.2-1.4c-12.2,0-24.3,1.4-36.5,4.3C208.5,102.4,208.5,98.1,208.5,93.8z M405.4,355.9
			c-9.3,32.2-35.8,58-61.6,78.1c-32.2,23.6-71.6,30.1-111,29.4c-35.1-0.7-59.4-7.9-87.4-26.5c-60.2-40.1-89.5-115.3-73-185.5
			c18.6-81.6,90.9-136.8,173.3-138.2c80.2,1.4,143.9,50.1,163.3,128.9C416.9,277.1,416.2,320.1,405.4,355.9z"/>
		<path class="st0" d="M333.8,169L333.8,169c-0.7-0.7-0.7-0.7-0.7-0.7c-55.9-38.7-129.6-40.1-184,1.4
			c-51.6,38.7-73,108.8-55.9,171.1c16.5,58,93.8,105.3,151.8,101.7c18.6-1.4,40.1-4.3,55.9-14.3c26.5-15.8,52.3-42.2,69.5-67.3
			C414,296.4,392.5,214.8,333.8,169z M381.1,258.5c7.9,44.4-7.2,86.6-38,119.6c-20.1,21.5-41.5,43-70.9,49.4
			c-32.2,7.2-64.4,5-93.8-11.5c-32.9-18.6-70.2-48.7-77.3-87.4c-7.9-40.8-1.4-85.2,22.2-118.9c47.3-67.3,138.2-79.5,204.1-33.7
			C353.9,196.9,375.4,225.5,381.1,258.5z"/>
		<path class="st0" d="M307.3,210.5c-19.3,19.3-38,38.7-57.3,58c-7.2-5.7-17.2-7.2-25.1-0.7c-8.6,7.2-12.2,24.3-4.3,32.2
			c7.9,7.9,22.9,9.3,31.5,2.1c7.9-7.2,8.6-17.2,3.6-25.8c19.3-19.3,38.7-39.4,58-58.7C319.5,213.4,312.3,206.2,307.3,210.5z
			 M230,295c-4.3-3.6-3.6-12.2-0.7-16.5c4.3-5.7,12.2-5.7,16.5,0c0,0,0,0,0.7,0.7v0.7C256.5,290.7,240.7,303.6,230,295z"/>
		<path class="st0" d="M183.4,184.7c-33.7,17.9-50.8,50.8-59.4,86.6c-1.4,6.4,7.9,8.6,9.3,2.9c7.9-33.7,23.6-64.4,54.4-80.9
			C194.2,190.4,189.2,181.8,183.4,184.7z"/>
		<path class="st0" d="M126.1,295c-6.4,0-6.4,10,0,10C132.6,305,132.6,295,126.1,295z"/>
		<path class="st0" d="M243.6,70.8c0-5-0.7-9.3-0.7-14.3c-0.7-6.4-10.7-6.4-10,0c0,5,0.7,9.3,0.7,14.3
			C234.3,77.3,244.3,77.3,243.6,70.8z"/>
		<path class="st0" d="M269.4,67.3c0-3.6,0-7.9-0.7-11.5c0-6.4-10-6.4-10,0c0,3.6,0,7.9,0.7,11.5C259.3,73.7,269.4,73.7,269.4,67.3z
			"/>
		<path class="st0" d="M214.9,70.8c-0.7-4.3-0.7-8.6-0.7-12.9c0.7-6.4-9.3-6.4-10,0c0,5,0,10,0.7,15.8
			C206.4,80.2,215.7,77.3,214.9,70.8z"/>
	</g>
</g>
<g id="Layer_5">
</g>
<g id="Layer_2_1_">
</g>
<g id="Layer_4">
</g>
<g id="Layer_16">
</g>
</svg>
