<?xml version="1.0" encoding="utf-8"?>
<!-- Generator: Adobe Illustrator 24.3.0, SVG Export Plug-In . SVG Version: 6.00 Build 0)  -->
<svg version="1.1" id="Layer_1" xmlns="http://www.w3.org/2000/svg" xmlns:xlink="http://www.w3.org/1999/xlink" x="0px" y="0px"
	 viewBox="0 0 508 508" style="enable-background:new 0 0 508 508;" xml:space="preserve">
<style type="text/css">
	.st0{fill:#333333;}
</style>
<g id="Layer_16">
	<g>
		<path class="st0" d="M457,346.1c-11.3-14.8-32.4-19.7-48-27.5c-5.6-2.8-12-5.6-17.6-9.2c5.6-1.4,5.6-9.9-0.7-9.9
			c-4.2,0-8.5,0.7-12.7,0.7c-5.6-4.9-10.6-11.3-14.8-16.9c6.3-0.7,6.3-10.6,0-9.9c-2.8,0-4.9,0-7.8,0c-4.9-5.6-9.9-11.3-14.8-16.9
			h0.7c6.3-0.7,6.3-10.6,0-9.9c-2.8,0-5.6,0-8.5,0.7c-4.2-5.6-8.5-11.3-12.7-16.9c0,0,0,0,0.7,0c6.3-0.7,6.3-10.6,0-9.9
			c-2.1,0-4.9,0-7.1,0c-2.1-3.5-4.2-6.3-6.3-9.9c-1.4-2.1-2.1-4.2-3.5-7.1h0.7c6.3-0.7,6.3-10.6,0-9.9c-2.1,0-3.5,0-5.6,0
			c-5.6-11.3-12-22.6-20.4-26.8c-1.4-0.7-2.8-0.7-4.2-1.4c-1.4-4.9-3.5-9.9-5.6-14.8c-0.7-2.1-1.4-4.2-3.5-6.3
			c-6.3-4.2-19-2.8-25.4-1.4c-19.7,4.2-23.3,21.9-24,39.5l0,0c-5.6,1.4-11.3,2.1-16.9,0.7c-14.8-3.5-33.1-16.2-40.9-28.2
			c-7.1-11.3-2.8-28.9-14.1-36.7c-1.4-0.7-2.8-1.4-3.5-2.1c9.9-13.4,4.2-34.6-14.8-36c-7.8-0.7-14.8,4.2-14.1,12
			c0,4.9,3.5,8.5,6.3,12c3.5,6.3,2.1,14.8-2.8,19.7l0,0c-24,19.7-64.2,42.3-58.5,79c-22.6,9.2-21.2,45.8-7.8,62.1
			c24,30.3,63.5,45.8,98,61.3c17.6,7.8,35.3,16.2,51.5,26.8c21.2,13.4,37.4,32.4,57.1,48c30.3,24.7,55,26.8,92.4,26.8
			c21.9,0,43.7,0,64.9-1.4c14.8-1.4,28.2-1.4,40.2-12C472.5,398.9,474.6,368.6,457,346.1z M459.1,380.6
			c-26.8,16.2-67.7,13.4-98,10.6c-14.1-1.4-27.5-4.9-40.2-9.9c6.3-19,33.1-24,50.1-21.9c7.8,0.7,16.2,2.8,24.7,1.4
			c13.4-2.1,24.7-13.4,31.7-24.7c4.9,2.8,9.9,4.9,13.4,8.5C451.4,353.8,458.4,367.2,459.1,380.6z M287.1,195.2
			c-7.1,0-13.4,0-20.4-0.7c-6.3-0.7-6.3,9.2,0,9.9c9.2,0.7,17.6,0.7,26.8,0c3.5,5.6,6.3,11.3,9.2,16.9c-6.3,0-12.7,0-19-0.7
			c-6.3-0.7-6.3,9.2,0,9.9c8.5,0.7,16.9,0.7,25.4,0c3.5,5.6,7.8,11.3,12,16.9c-5.6,0-11.3,0-16.9-0.7c-6.3-0.7-6.3,9.2,0,9.9
			c7.8,0.7,16.2,0.7,24,0c4.2,5.6,9.2,11.3,13.4,16.9c-5.6,0-10.6,0-16.2-0.7c-6.3-0.7-6.3,9.2,0,9.9c8.5,0.7,16.2,0.7,24.7,0
			c4.9,5.6,9.9,11.3,14.8,16.2c-3.5,0-7.8,0-11.3,0c-6.3-0.7-6.3,9.2,0,9.9c7.1,0.7,14.8,0.7,21.9,0.7c2.8,2.1,5.6,4.2,8.5,5.6
			c-31.7,19-61.3-21.9-79.7-43.7c-23.3-27.5-41.6-58.5-59.2-89.6c6.3-2.8,12.7-4.9,18.3-4.2C273,178.9,280.7,186,287.1,195.2z
			 M240.5,155c4.2-1.4,12.7-2.1,16.9,0c2.8,1.4,4.9,7.8,6.3,12.7c-9.2,1.4-18.3,5.6-25.4,8.5c-4.2,1.4-8.5,3.5-13.4,5.6
			C226.4,169.8,227.8,158.5,240.5,155z M144.6,152.1c3.5,9.2,9.9,17.6,17.6,24c16.9,14.8,39.5,24,60.6,16.2
			c3.5-1.4,7.8-3.5,12.7-6.3c2.1,4.2,4.9,8.5,7.1,12c-24,9.2-45.1,12.7-70.5,3.5c-31-11.3-46.5-36.7-52.9-68.4
			c1.4-0.7,2.8-2.1,3.5-2.8C136.9,119.7,141.1,143,144.6,152.1z M128.4,93.6c9.2,4.9,9.2,16.9,0.7,22.6l-0.7,0.7
			c0.7-4.2,0-8.5-2.1-12c-1.4-2.8-3.5-4.9-4.9-7.1C119.9,92.2,124.2,91.5,128.4,93.6z M110.8,140.9c15.5,64.9,75.5,91.7,136.8,66.3
			c19.7,33.1,41.6,64.2,67,93.8c19.7,22.6,52.2,38.8,78.3,20.4c1.4,0.7,2.8,1.4,4.2,2.1c6.3,2.8,13.4,6.3,21.2,9.2
			c-7.8,12.7-19.7,19.7-35.3,19c-9.9-0.7-19-3.5-28.9-2.1c-16.2,1.4-36.7,12-43,28.2c-19-9.2-36.7-21.2-52.9-34.6
			c-0.7-0.7-1.4-1.4-2.1-1.4c0.7-0.7,1.4-1.4,1.4-2.1c9.9-23.3-1.4-50.8-19.7-67c-21.9-18.3-48-19.7-74.7-13.4
			c-0.7,0-1.4,0.7-2.1,0.7c-31-19.7-63.5-37.4-96.6-53.6C59.3,176.8,88.9,157.1,110.8,140.9z M249.7,334.8
			c-25.4-22.6-46.5-48.7-75.5-67c-0.7,0-0.7-0.7-1.4-0.7c19.7-3.5,38.1-2.1,55,9.9C246.2,288.9,257.4,313.6,249.7,334.8z
			 M446.4,408.1c-15.5,12-37.4,11.3-56.4,12c-29.6,0.7-67,6.3-95.2-3.5c-32.4-11.3-54.3-41.6-81.1-61.3
			c-27.5-20.4-59.9-32.4-90.3-47.2c-16.9-7.8-33.8-16.9-48.7-28.2c-8.5-6.3-19.7-14.8-24.7-24c-5.6-11.3-3.5-36.7,10.6-41.6
			c40.2,21.2,82.5,42.3,119.2,69.1c37.4,27.5,64.9,64.9,104.4,90.3c28.9,19,57.8,27.5,92.4,28.9c25.4,1.4,57.1,2.1,81.1-9.2
			C455.6,398.9,452.1,403.9,446.4,408.1z"/>
		<path class="st0" d="M98.8,270.6c-12.7-4.9-31.7-18.3-32.4-33.1c0-6.3-9.9-6.3-9.9,0c0.7,19.7,22.6,36,39.5,43
			C102.3,282.6,104.4,273.4,98.8,270.6z"/>
		<path class="st0" d="M109.4,279.8c-6.3,0-6.3,9.9,0,9.9C115.7,289.6,115.7,279.8,109.4,279.8z"/>
	</g>
</g>
</svg>
