<?xml version="1.0" encoding="utf-8"?>
<!-- Generator: Adobe Illustrator 24.3.0, SVG Export Plug-In . SVG Version: 6.00 Build 0)  -->
<svg version="1.1" id="Layer_1" xmlns="http://www.w3.org/2000/svg" xmlns:xlink="http://www.w3.org/1999/xlink" x="0px" y="0px"
	 viewBox="0 0 508 508" style="enable-background:new 0 0 508 508;" xml:space="preserve">
<style type="text/css">
	.st0{fill:#333333;}
</style>
<g id="Layer_2_1_">
	<g>
		<path class="st0" d="M482.5,260.3c0-3.7-0.7-8.2-0.7-12c0-4.5,0.7-9.7-2.2-13.4c-4.5-6-13.4-5.2-20.2-5.2
			c0-10.5-0.7-20.9-0.7-31.4c0-7.5,2.2-19.4-2.2-26.1c-7.5-10.5-28.4-9-41.1-9.7c0-1.5,0-3.7,0-5.2c-2.2-26.9-17.2-31.4-43.3-31.4
			c-28.4,0-35.9,9.7-38.1,38.1c-1.5,22.4-2.2,44.8-2.2,66.5c-27.6,2.2-56.8-0.7-83.7-0.7c-23.9,0-47.1,0.7-71,1.5
			c0-22.4-0.7-44.1-2.2-66.5c-2.2-27.6-9.7-38.1-38.1-38.1c-20.2,0-40.3,2.2-43.3,24.7c-0.7,3.7-0.7,8.2-0.7,12
			c-12.7,0-32.1-0.7-39.6,8.2c-9,12-5.2,42.6-5.2,56.8c0,0.7,0,0.7,0,1.5c-6,0-12.7-0.7-17.2,1.5c-8.2,3.7-5.2,17.9-5.2,25.4
			c0,7.5-2.2,19.4,6.7,20.9c4.5,0.7,9.7,1.5,14.2,0.7c0,17.2,0.7,35.1,5.2,50c4.5,19.4,23.2,19.4,41.1,19.4c0,2.2,0,5.2,0.7,7.5
			c2.2,23.9,15.7,26.1,36.6,26.1c13.4,0,35.1,5.2,43.3-9c4.5-8.2,3.7-22.4,3.7-31.4c0.7-19.4,0.7-38.8,0-58.3c0-1.5,0-3,0-4.5
			c50.8-0.7,103.1,2.2,153.9-0.7c0,17.2,0,35.1,0,52.3c0,11.2-1.5,25.4,2.2,36.6c6,18.7,27.6,14.2,44.1,14.2
			c17.9,0,33.6,0.7,38.1-20.2c0.7-4.5,1.5-9,1.5-13.4c17.2,0,35.9-0.7,40.3-18.7c3.7-14.2,4.5-31.4,3.7-47.8c6,0,12.7,0,17.2-2.2
			C484.7,275.9,483.2,267,482.5,260.3z M35.8,268.5c-0.7-4.5,0-9.7,0-14.2c0-3,0-5.2,0-8.2c0-0.7,0.7-4.5,0-4.5c1.5-0.7,6,0,6.7,0
			c1.5,0,3.7,0,5.2,0c0,9-0.7,18.7-0.7,28.4C43.3,270,39.5,269.2,35.8,268.5z M61.2,320.8c-2.2-8.2-1.5-17.2-1.5-25.4
			c-1.5-21.7-1.5-44.1-1.5-66.5c0-12.7-1.5-28.4,1.5-41.1c3.7-14.9,17.9-13.4,32.1-13.4c-0.7,24.7,1.5,49.3,1.5,73.2
			c-0.7,29.9-2.2,60.5-0.7,90.4C76.1,338.7,66.4,339.4,61.2,320.8z M166.5,350.6c-0.7,11.2,0.7,19.4-11.2,22.4
			c-6.7,1.5-16.4,0-23.2,0c-12.7,0-24.7-6-28.4-18.7c-2.2-9.7,0-23.9,0-33.6c0-23.9-0.7-47.8,0-71.7c0-15.7,0-31.4-0.7-47.1
			c0-12.7,0.7-24.7,0.7-37.3c0-20.9,13.4-25.4,32.1-25.4c9,0,20.9,4.5,26.1,12.7c3,4.5,1.5,16.4,1.5,22.4c0.7,12,0.7,24.7,1.5,36.6
			c0.7,23.2,1.5,47.1,1.5,70.2C167.3,303.6,168,327.5,166.5,350.6z M177.7,269.2c0-9,0-17.9,0-26.9c23.2-0.7,47.1-0.7,71-1.5
			c27.6,0,56.8,3,83.7,0.7c0,9,0,17.9,0,26.9C280.8,271.5,228.5,269.2,177.7,269.2z M405.6,199c-0.7,15.7-0.7,31.4-0.7,47.1
			c0.7,22.4,0,44.8,0,67.2c0,24.7,7.5,56.8-27.6,57.5c-6,0-16.4,2.2-22.4,0c-15.7-6.7-12.7-19.4-13.4-32.1
			c-0.7-22.4-0.7-44.1,0-66.5c0-23.2,0.7-45.6,1.5-68.7c0.7-24.7-6.7-67.2,29.1-67.2c20.9,0,29.1,7.5,32.9,29.1
			C407.1,176.6,406.3,188.5,405.6,199z M448.9,297.6c0,7.5,0.7,16.4-1.5,23.2c-4.5,17.2-15.7,16.4-30.6,16.4
			c0-11.2-1.5-22.4-0.7-32.9c0-19.4,0-38.8,0-58.3c-0.7-24.7,1.5-48.6,0.7-73.2c6.7,0,13.4,0,19.4,1.5c12,3,12,4.5,12.7,17.2
			c1.5,16.4,0,33.6,0.7,49.3C449.6,261,449.6,278.9,448.9,297.6z M460.8,270.7c-0.7-9.7-0.7-19.4-0.7-28.4c0-0.7,0-1.5,0-1.5
			c2.2,0,4.5,0,7.5,0c3.7,0,3.7-0.7,4.5,2.2c0.7,2.2,0,6,0,8.2c0,3,0.7,6,0.7,9c0,2.2,0,4.5,0,7.5c0,0,0,1.5,0,2.2H472
			C467.6,270,464.6,270,460.8,270.7z"/>
		<path class="st0" d="M115,163.1c-5.2,12-3.7,26.9-2.2,39.6c0.7,6.7,11.2,6.7,10.5,0c-1.5-11.2-3-25.4,1.5-36.6
			C127.7,159.4,117.2,157.2,115,163.1z"/>
		<path class="st0" d="M129.2,147.5c-6.7,0-6.7,10.5,0,10.5C135.9,157.9,135.9,147.5,129.2,147.5z"/>
		<path class="st0" d="M356.3,158.7c-3.7,5.2-3.7,12.7-4.5,18.7c-0.7,7.5-1.5,14.9-0.7,22.4c0.7,6.7,11.2,6.7,10.5,0
			c-0.7-6,0-12.7,0-18.7c0.7-5.2,0.7-12.7,3.7-17.2C369,157.9,360,152.7,356.3,158.7z"/>
		<path class="st0" d="M371.2,145.2c-6.7,0-6.7,10.5,0,10.5C377.9,155.7,377.9,145.2,371.2,145.2z"/>
	</g>
</g>
</svg>
