<?xml version="1.0" encoding="utf-8"?>
<!-- Generator: Adobe Illustrator 24.3.0, SVG Export Plug-In . SVG Version: 6.00 Build 0)  -->
<svg version="1.1" id="Layer_1" xmlns="http://www.w3.org/2000/svg" xmlns:xlink="http://www.w3.org/1999/xlink" x="0px" y="0px"
	 viewBox="0 0 508 508" style="enable-background:new 0 0 508 508;" xml:space="preserve">
<style type="text/css">
	.st0{fill:#333333;}
</style>
<g id="Layer_4">
	<g>
		<path class="st0" d="M455,272.8c-29.8-37.3-108.1-44-128.9,3.7c-8.9-12.7-23.1-22.4-37.3-26.8c-35.8-12.7-70.1-3-96.1,22.4
			c0-1.5,0-3.7,0-5.2c0-31.3-0.7-67.8,10.4-98.4c8.2,8.2,23.8,11.9,34.3,11.9c25.3-1.5,49.2-3,59.6-30.6c9.7-25.3-1.5-54.4-19.4-73
			c-12.7-13.4-17.1-13.4-35-12.7c-17.9,0.7-35.8,2.2-52.9,5.2c-29.1,5.2-53.7,49.9-67.8,73.8c-41.7,71.5-80.5,149.8-86.5,233.3
			c0,1.5,0.7,3.7,2.2,4.5c111,73,274.3,88.7,390.5,16.4C471.4,371.1,488.5,314.5,455,272.8z M419.9,390.5
			c-60.4,35-134.9,47-204.2,41c-35-3-70.1-11.2-103.6-23.8C94.2,401,76.4,392,60,382.3c-20.9-12.7-11.2-38-6-58.9
			c9.7-40.2,26.1-78.3,44.7-114.8c17.9-35.8,36.5-72.3,61.9-103.6c7.5-8.9,14.2-17.9,24.6-23.1c13.4-6.7,29.8-6,44-7.5
			c13.4-0.7,26.8-3,38,6c9.7,7.5,16.4,21.6,19.4,32.8c3.7,14.9,3,36.5-11.2,46.2c-9.7,7.5-23.1,7.5-35,8.2c-3,0-7.5,1.5-10.4,0.7
			c-9.7-1.5-26.1-11.2-17.1-23.1c3.7-5.2,18.6-7.5,24.6-7.5c6.7,0,6.7-10.4,0-10.4c-12.7,0-39.5,6.7-41,23.1c0,1.5,0,3,0,3.7
			c-11.2,23.1-12.7,49.9-14.2,75.3c-0.7,14.2,0,28.3-0.7,41.7c-2.2,26.1-20.1,46.2-37.3,64.1c-4.5,4.5,3,11.9,7.5,7.5
			c17.1-17.1,31.3-34.3,37.3-55.9c0.7,0,0.7-0.7,1.5-0.7c24.6-29.8,59.6-43.2,96.9-28.3c14.2,5.2,29.1,16.4,34.3,31.3
			c1.5,4.5,8.9,5.2,9.7,0c11.2-58.9,100.6-42.5,121.5,0.7C472.9,330.1,455.7,369.6,419.9,390.5z"/>
		<path class="st0" d="M307.4,344.3c-16.4,14.9-32,20.9-53.7,19.4c-20.9-1.5-41-4.5-58.9-16.4c-5.2-3.7-10.4,5.2-5.2,8.9
			c20.9,14.2,45.5,17.1,70.8,17.9c22.4,0.7,38-8.2,54.4-23.1C319.3,347.3,311.9,339.8,307.4,344.3z"/>
		<path class="st0" d="M209.8,304.8c4.5-9.7,13.4-14.9,22.4-20.1c6-3.7,0.7-12.7-5.2-8.9c-10.4,6-20.1,12.7-26.1,23.8
			C197.8,305.6,206.8,310.8,209.8,304.8z"/>
		<path class="st0" d="M244,279.5c6.7,0,6.7-10.4,0-10.4C237.3,269,237.3,279.5,244,279.5z"/>
	</g>
</g>
</svg>
