<?xml version="1.0" encoding="utf-8"?>
<!-- Generator: Adobe Illustrator 24.3.0, SVG Export Plug-In . SVG Version: 6.00 Build 0)  -->
<svg version="1.1" id="Layer_1" xmlns="http://www.w3.org/2000/svg" xmlns:xlink="http://www.w3.org/1999/xlink" x="0px" y="0px"
	 viewBox="0 0 508 508" style="enable-background:new 0 0 508 508;" xml:space="preserve">
<style type="text/css">
	.st0{fill:#333333;}
</style>
<g id="Layer_5">
	<g>
		<path class="st0" d="M402.9,281.7c-16.6-26.9-36.4-54.7-45.2-85.6c-11.1-42-2.4-91.1,19-128.4c3.2-6.3-6.3-11.9-9.5-5.5
			c-34.1,59.4-31.7,126.8,1.6,185.4c5.5,9.5,11.9,19,17.4,28.5c-86.4,22.2-171.9,17.4-259.1,5.5c10.3-17.4,21.4-35.7,26.9-55.5
			c17.4-54.7,12.7-112.5-11.1-164c-3.2-6.3-12.7-0.8-9.5,5.5c30.9,66.6,23,141-13.5,204.4c-29.3,50.7-54.7,114.1-30.9,172.7
			c2.4,6.3,13.5,4,10.3-3.2c-15.1-36.4-8.7-80.8,4.8-116.5c4-11.9,9.5-22.2,15.8-33.3c42.8,16.6,71.3,63.4,92.7,101.4
			c7.9,14.3,13.5,30.9,23,44.4c7.1,11.1,16.6,9.5,30.1,7.9c1.6,0,3.2-2.4,4-4c7.1-42,34.1-76.9,63.4-106.2
			c15.8-15.8,36.4-38.8,58.6-48.3c6.3,11.1,12.7,23,15.8,36.4c10.3,37.2,11.9,79.2,3.2,117.3c-1.6,7.1,8.7,9.5,10.3,3.2
			C433.8,391.8,430.6,327.6,402.9,281.7z M335.6,318.1c-29.3,26.9-57,59.4-70.5,97.5c-4,10.3-6.3,26.9-19.8,14.3
			c-4.8-4-7.1-15.1-9.5-20.6c-9.5-19-20.6-37.2-32.5-54.7c-15.1-21.4-31.7-43.6-53.1-59.4c72.1,8.7,142.6,11.1,213.9-2.4
			C353.8,300.7,344.3,310.2,335.6,318.1z"/>
		<path class="st0" d="M254.7,233.4c7.1,0,7.1-11.1,0-11.1C247.6,222.3,247.6,233.4,254.7,233.4z"/>
		<path class="st0" d="M120,332.4c-10.3,17.4-15.1,37.2-13.5,57.8c0.8,7.1,11.9,7.1,11.1,0c-1.6-19,2.4-36.4,11.9-52.3
			C132.7,331.6,123.2,326.1,120,332.4z"/>
		<path class="st0" d="M107.4,408.5L107.4,408.5c0,7.1,11.1,7.1,11.1,0l0,0C118.5,401.3,107.4,401.3,107.4,408.5z"/>
	</g>
</g>
</svg>
