<?xml version="1.0" encoding="utf-8"?>
<!-- Generator: Adobe Illustrator 24.3.0, SVG Export Plug-In . SVG Version: 6.00 Build 0)  -->
<svg version="1.1" id="Layer_1" xmlns="http://www.w3.org/2000/svg" xmlns:xlink="http://www.w3.org/1999/xlink" x="0px" y="0px"
	 viewBox="0 0 508 508" style="enable-background:new 0 0 508 508;" xml:space="preserve">
<style type="text/css">
	.st0{fill:#333333;}
</style>
<g id="Layer_17">
	<g>
		<path class="st0" d="M376,150c-15.5-5.6-30.3-4.9-45.1-1.4c0.7-0.7,2.1-1.4,2.8-2.8c16.2-19.7,21.9-49.4,13.4-73.3
			c0-0.7-0.7-0.7-0.7-1.4c0-2.1-1.4-4.2-4.9-4.2c-38.1,2.8-71.2,30.3-81.8,65.6c-8.5-25.4-27.5-49.4-47.9-64.2
			c-1.4-1.4-2.8-1.4-4.2-0.7c0,0,0,0-0.7,0l-0.7,0.7c0,0-0.7,0-0.7,0.7c-7.8,8.5-12,21.2-14.8,32.4c-0.7,2.1,0,3.5,0.7,4.2
			c0.7,0.7,1.4,1.4,2.1,1.4c27.5,8.5,47.9,29.6,55,57.1c-30.3-4.9-56.4-24-88.8-20.4c-31.7,4.2-56.4,26.1-69.8,54.3
			c-33.8,73.3,4.9,161.5,52.9,219.3c25.4,30.3,48.6,26.8,82.5,15.5c24.7-8.5,41.6-3.5,66.3,2.8c13.4,3.5,28.2,7.1,42.3,4.9
			c33.1-4.9,55-45.8,67-73.3c17.6-40.9,31-82.5,30.3-127.6C431.7,202.9,412.7,164.1,376,150z M338.6,78.1
			c6.3,21.2,0.7,48.6-14.8,64.9c-14.8,14.8-37.4,19.7-57.1,22.6c0-0.7,0-0.7,0-1.4C263.2,121.8,296.3,83.1,338.6,78.1z M202.6,100.7
			c2.1-7.1,4.2-14.1,8.5-20.4C229.4,95,246.3,119,252.6,143C242,123.2,224.4,108.4,202.6,100.7z M358.4,418
			c-32.4,30.3-69.1-2.1-105.8-0.7c-17.6,0.7-33.1,9.9-49.4,14.1c-29.6,7.8-47.2-14.1-62-36.7c-25.4-38.1-47.9-79-51.5-125.5
			c-2.8-46.5,17.6-105.1,69.1-114.2c36.7-7.1,64.9,17.6,100.1,20.4c0.7,0,1.4,0,2.1,0c9.9,0,19.7-2.1,29.6-5.6
			c4.9-1.4,9.2-2.8,13.4-4.2c20.4-7.1,41.6-14.8,62.7-8.5c58.5,16.2,62,88.8,50.8,137.5C408.4,336.9,390.1,388.3,358.4,418z"/>
		<path class="st0" d="M169.4,183.9c-33.1,13.4-50.1,55.7-44.4,88.8c0.7,6.3,10.6,3.5,9.2-2.8c-4.9-27.5,9.9-65.6,37.4-76.8
			C177.9,190.9,175.1,181.8,169.4,183.9z"/>
		<path class="st0" d="M131.4,293.9c-6.3,0-6.3,9.9,0,9.9C137.7,303.7,137.7,293.9,131.4,293.9z"/>
	</g>
</g>
</svg>
